<svg width="31" height="32" viewBox="0 0 31 32" fill="none" xmlns="http://www.w3.org/2000/svg">
<g clip-path="url(#clip0_1477_9032)">
<path d="M16.7888 0.00292969H14.2114V10.2503H16.7888V0.00292969Z" fill="#F0E955"/>
<path d="M10.2474 14.2227H0V16.8001H10.2474V14.2227Z" fill="#252524"/>
<path d="M31.0086 14.2227H20.7612V16.8001H31.0086V14.2227Z" fill="#252524"/>
<path d="M10.8744 18.3145L3.62842 25.5605L5.45092 27.383L12.6969 20.137L10.8744 18.3145Z" fill="#7FC262"/>
<path d="M5.4436 3.6316L3.62109 5.4541L10.8671 12.7001L12.6896 10.8776L5.4436 3.6316Z" fill="#E8332C"/>
<path d="M25.5566 3.62996L18.3105 10.876L20.133 12.6985L27.3791 5.45246L25.5566 3.62996Z" fill="#7FC262"/>
<path d="M16.7888 20.7646H14.2114V31.0121H16.7888V20.7646Z" fill="#F0E955"/>
<path d="M20.1287 18.3132L18.3062 20.1357L25.5522 27.3818L27.3747 25.5593L20.1287 18.3132Z" fill="#E8332C"/>
</g>
<defs>
<clipPath id="clip0_1477_9032">
<rect width="31" height="31.0089" fill="white" transform="translate(0 0.00292969)"/>
</clipPath>
</defs>
</svg>
